<svg width="642" height="642" viewBox="0 0 642 642" fill="none" xmlns="http://www.w3.org/2000/svg">
<g opacity="0.6">
<rect width="642" height="642" fill="#6C6C6C"/>
<path d="M441.305 135.05C436.21 121.445 430.894 107.251 394.902 116.852C375.576 122.007 359.376 140.221 346.132 167.269C336.168 188.78 327.749 216.597 321.034 249.948C307.311 318.098 301.53 406.255 304.232 491.966L298.243 492.155L298.164 489.57C296.336 427.677 298.902 364.629 305.672 308.732C276.869 278.795 244.039 255.2 220.115 247.363C163.422 234.862 148.445 267.888 148.817 297.349C148.884 302.736 150.767 307.216 152.664 311.73C154.625 316.397 156.6 321.1 156.6 326.877C156.6 330.708 148.032 338.622 136.895 348.91C114.999 369.135 83.1711 398.534 86.9911 424.119C90.5214 447.762 112.909 465.715 133.516 475.367C135.533 476.312 137.73 478.068 140.374 480.181C142.255 481.683 144.361 483.366 146.789 485.066L146.975 485.195C148.883 486.509 152.03 488.362 156.419 490.755L157.772 491.49C219.854 524.98 291.904 502.417 314.355 494.089L315.668 493.598L474.881 491.825L474.86 491.701C474.816 491.441 474.745 491.056 474.653 490.558C473.157 482.447 466.128 444.349 481.095 428.995C527.837 381.048 579.092 243.833 509.405 186.333C494.005 173.627 478.723 165.902 466.988 159.97C459.86 156.366 454.04 153.424 450.295 150.429C445.683 146.74 443.515 140.95 441.305 135.05Z" fill="#64FCD9"/>
<path fill-rule="evenodd" clip-rule="evenodd" d="M159.345 288.629C155.837 288.019 162.037 294.977 162.037 294.977C162.037 294.977 162.854 289.239 159.345 288.629Z" fill="#6C6C6C"/>
<path fill-rule="evenodd" clip-rule="evenodd" d="M211.826 492.36C211.826 492.36 174.138 476.592 174.138 454.637C174.138 448.197 178.166 448.815 186.224 456.493C187.1 457.328 188.355 458.61 189.99 460.339C190.991 461.398 168.372 433.932 179.77 428.794C190.879 423.786 193.464 449.786 194.044 449.427C194.69 449.028 194.501 441.162 197.072 437.683C198.458 435.81 202.531 435.409 205.613 437.683C221.806 449.631 211.826 492.36 211.826 492.36Z" fill="#6C6C6C"/>
<path fill-rule="evenodd" clip-rule="evenodd" d="M195.626 331.308C195.626 331.308 179.949 330.503 177.812 325.518C175.675 320.534 187.301 323.366 187.301 323.366L195.626 331.308Z" fill="#6C6C6C"/>
<path fill-rule="evenodd" clip-rule="evenodd" d="M169.113 307.676C165.603 305.712 167.599 301.03 169.113 300.835C173.594 300.258 177.13 310.188 177.623 311.182C178.479 312.904 170.894 308.673 169.113 307.676Z" fill="#6C6C6C"/>
<path fill-rule="evenodd" clip-rule="evenodd" d="M205.203 337.776C205.203 337.776 196.62 315.893 204.566 317.617C212.512 319.342 210.226 344.782 210.226 344.782L205.203 337.776Z" fill="#6C6C6C"/>
<path fill-rule="evenodd" clip-rule="evenodd" d="M199.441 321.836C199.553 325.385 201.069 330.83 203.982 338.255C204.021 338.356 204.073 338.452 204.137 338.541L209.16 345.546C209.868 346.535 211.425 346.11 211.533 344.899L211.624 343.85C213.036 326.888 210.998 317.67 204.844 316.334C201.264 315.557 199.31 317.698 199.441 321.836ZM204.42 318.931C208.243 319.911 210.021 327.005 209.244 340.319L209.195 341.092L206.364 337.143L205.869 335.859C203.424 329.431 202.158 324.707 202.064 321.753L202.057 321.34C202.051 319.102 202.666 318.547 204.288 318.899L204.42 318.931Z" fill="#00160A"/>
<path fill-rule="evenodd" clip-rule="evenodd" d="M174.892 427.468C169.363 429.96 169.745 436.248 173.966 444.814L174.29 445.461C175.062 446.979 175.943 448.548 176.918 450.156L177.254 450.705L177.212 450.677C175.633 449.627 174.272 449.013 173.1 448.833C169.989 448.355 168.403 450.647 168.403 454.638C168.403 470.002 181.377 482.989 206.984 493.702C207.815 494.05 208.758 493.567 208.963 492.691C215.736 463.695 213.603 444.928 202.197 436.513C198.698 433.931 193.638 434.091 191.622 436.819L191.447 437.065C190.59 438.325 189.992 439.983 189.549 442.045L189.53 442.137L189.472 441.91C189.157 440.676 188.824 439.512 188.447 438.345C187.197 434.478 185.702 431.441 183.827 429.409C181.359 426.734 178.291 425.935 174.892 427.468ZM187.417 445.905L188.056 448.918L188.13 449.231C188.177 449.421 188.22 449.573 188.264 449.702C188.322 449.876 188.383 450.02 188.48 450.173C188.6 450.362 188.749 450.529 188.986 450.672C189.448 450.951 190.041 450.967 190.529 450.665C191.159 450.276 191.312 449.943 191.485 448.842L191.565 448.293C191.622 447.886 191.83 446.158 191.865 445.884C192.005 444.793 192.145 443.892 192.316 443.034C192.719 441.019 193.261 439.497 193.963 438.549C194.922 437.251 198.157 437.148 200.469 438.855L200.773 439.083C210.392 446.492 212.475 463.275 206.694 489.539L206.515 490.341L205.923 490.084C182.745 479.975 171.313 468.128 171.313 454.638C171.313 452.187 171.741 451.568 172.658 451.709C174.282 451.959 177.119 453.906 180.94 457.547L181.428 458.02C182.011 458.592 182.726 459.321 183.573 460.204L184.701 461.389C184.72 461.407 184.749 461.433 184.807 461.485L184.826 461.529C184.871 461.602 185.014 461.629 185.968 461.806L186.3 461.689C186.694 461.54 186.756 461.442 187.091 460.916L187.167 460.597C187.213 460.387 187.206 460.337 187.182 460.156L187.118 459.898C187.104 459.847 187.094 459.821 187.076 459.784L187.062 459.753C187.022 459.669 187 459.625 186.963 459.569L186.567 459.036L185.559 457.701C185.386 457.469 185.211 457.234 185.018 456.971C183.359 454.72 181.75 452.394 180.238 449.993C178.822 447.745 177.586 445.576 176.577 443.528C173.016 436.3 172.732 431.634 176.088 430.121C180.127 428.3 183.228 431.661 185.678 439.24C186.343 441.3 186.871 443.375 187.417 445.905Z" fill="#00160A"/>
<path fill-rule="evenodd" clip-rule="evenodd" d="M179.405 311.985L180.6 313.073C195.423 326.604 205.743 337.4 211.244 344.892C220.846 357.968 228.584 371.531 235.105 385.893C237.423 390.997 239.521 396.05 241.588 401.416L242.151 402.887C242.796 404.582 243.419 406.255 244.098 408.11L246.991 416.093C254.818 437.522 252.227 438.566 244.776 417.723L241.849 409.641C241.237 407.962 240.675 406.444 240.111 404.947L239.686 403.825C237.454 397.955 235.207 392.497 232.704 386.983C226.255 372.779 218.606 359.373 209.118 346.453L208.684 345.867C203.048 338.362 192.583 327.513 177.632 313.937C177.093 313.448 177.052 312.614 177.542 312.075C178.031 311.535 178.865 311.495 179.405 311.985ZM144.71 282.097L163.169 297.853C164.9 299.338 166.248 300.501 166.892 301.068C167.438 301.55 167.491 302.383 167.009 302.929C166.528 303.476 165.695 303.528 165.148 303.047L160.344 298.905C153.965 293.44 143.893 284.87 142.995 284.101C142.442 283.627 142.377 282.795 142.851 282.241C143.324 281.688 144.157 281.624 144.71 282.097Z" fill="#00160A"/>
<path fill-rule="evenodd" clip-rule="evenodd" d="M178.826 321.208C176.402 321.758 175.586 323.656 176.606 326.036C178.308 330.006 184.619 332.057 195.559 332.619C196.775 332.682 197.413 331.199 196.532 330.359L188.206 322.417C188.04 322.258 187.835 322.146 187.611 322.092C183.551 321.102 180.661 320.792 178.826 321.208ZM186.649 324.56L192.078 329.737L191.752 329.706L190.932 329.62C183.943 328.837 179.968 327.216 179.018 325.002L178.92 324.764C178.629 324.036 178.734 323.921 179.406 323.768C180.645 323.487 182.963 323.709 186.267 324.47L186.649 324.56Z" fill="#00160A"/>
<path fill-rule="evenodd" clip-rule="evenodd" d="M171.119 500.065C167.814 501.968 169.161 503.949 176.288 507.112C183.979 510.571 198.292 517.247 222.877 519.128C260.956 522.041 295.627 516.545 339.395 516.545C399.99 516.545 426.588 529.859 447.796 526.788C504.648 518.557 517.527 502.582 500.567 498.46C481.946 493.935 422.761 494.488 402.838 493.186L396.672 492.791L391.376 492.658C334.03 491.25 242.109 492.658 224.157 492.658C187.533 492.658 171.119 500.065 171.119 500.065Z" fill="#6C6C6C"/>
<path fill-rule="evenodd" clip-rule="evenodd" d="M339.395 516.545C399.99 516.545 426.588 530.319 447.796 527.248C504.648 519.017 517.527 502.582 500.567 498.46C481.946 493.935 414.304 492.465 397.648 492.826C397.648 492.826 474.219 506.975 470.122 511.66C457.922 525.613 427.543 508.753 372.368 509.245C361.002 509.346 339.395 516.545 339.395 516.545Z" fill="#E7EAEE"/>
<path fill-rule="evenodd" clip-rule="evenodd" d="M227.791 493.257C226.316 493.265 225.131 493.269 224.157 493.269L222.485 493.273C198.676 493.384 181.31 495.887 170.314 500.848L170.142 500.936C167.574 502.415 166.59 504.593 168.204 506.83C169.247 508.276 171.432 509.642 175.12 511.303L178.255 512.704C182.167 514.437 184.487 515.375 187.97 516.601L188.348 516.733C198.395 520.243 209.545 522.64 222.728 523.648C232.095 524.365 241.641 524.611 252.105 524.466L255.768 524.401C262.648 524.26 268.509 524.018 279.217 523.443L297.726 522.418C315.363 521.464 326.122 521.082 338.825 521.071L339.395 521.071C362.13 521.071 380.703 522.801 401.302 526.174L403.09 526.472C406.193 527.011 423.265 530.019 427.979 530.696L428.142 530.719C436.367 531.877 442.453 532.108 448.076 531.294L449.649 531.063C475.185 527.247 493.637 521.563 502.956 515.274C512.267 508.992 511.424 501.793 501.338 499.203L501.029 499.126C492.653 497.09 476.753 495.959 452.047 495.219L446.98 495.076C445.503 495.036 443.977 494.997 442.372 494.957L420.865 494.46C412.582 494.255 407.503 494.079 403.659 493.845L396.798 493.405L391.425 493.269L385.964 493.146C370.127 492.815 351.211 492.657 329.56 492.644L323.123 492.644C308.035 492.653 292.419 492.727 274.984 492.857L227.791 493.257ZM334.595 496.565C356.205 496.602 374.943 496.792 390.437 497.162L396.623 497.317L403.657 497.768C407.527 497.998 412.595 498.173 420.75 498.374L441.467 498.852C443.91 498.912 446.166 498.97 448.332 499.03L453.405 499.179C476.957 499.91 492.266 501.026 500.104 502.931L500.574 503.05C507.075 504.756 507.289 507.627 500.766 512.028C491.847 518.047 455.233 534.172 429.358 528.675L428.169 528.507C422.7 527.693 404.371 523.583 403.291 523.403L400.635 522.968C380.795 519.774 362.686 518.099 340.856 518.028L337.682 518.027C324.628 518.062 313.385 518.498 294.282 519.555L281.025 520.294C268.203 520.992 262.09 521.243 254.112 521.387L253.47 521.398C213.014 522.968 188.348 513.545 188.348 513.545C185.12 512.392 176.766 509.49 176.766 509.49L176.144 509.206C156.655 502.589 199.206 497.296 222.52 497.188L229.787 497.16L272.006 496.796C291.661 496.644 308.966 496.561 325.704 496.559L334.595 496.565Z" fill="#00160A"/>
<path fill-rule="evenodd" clip-rule="evenodd" d="M424.502 464.997C424.502 464.997 424.399 470.801 426.186 473.488C427.973 476.174 432.955 483.645 437.59 485.611C439.018 486.217 444.468 486.294 447.743 488.207C454.321 492.051 455.786 498.975 447.743 500.442C431.774 503.354 426.186 494.937 426.186 494.937C426.186 494.937 419.607 485.611 413.014 479.427C406.421 473.243 401.168 471.38 401.168 471.38" fill="#6C6C6C"/>
<path d="M479.611 209.793C477.389 209.626 476.082 211.315 476.082 213.361C476.082 220.442 487.65 230.125 495.188 230.125C497.397 230.125 499.205 228.544 498.563 226.128C498.321 225.218 497.765 224.41 496.852 223.415L496.65 223.198C495.624 222.109 494.563 221.135 492.184 219.088L488.539 215.964C487.645 215.19 486.223 213.956 485.793 213.588L485.275 213.149C484.279 212.309 483.509 211.697 482.821 211.211C481.606 210.351 480.663 209.872 479.611 209.793Z" fill="#6C6C6C"/>
<path fill-rule="evenodd" clip-rule="evenodd" d="M405.712 348.62C405.712 348.62 401.332 336.12 390.075 332.734C386.498 331.659 402.144 355.272 388.335 364.081C384.024 366.83 376.36 368.257 366.928 369.599C324.886 375.584 312.211 359.896 286.258 352.235C275.852 349.164 225.235 335.575 217.582 404.795C212.792 448.122 249.074 461.55 281.59 468.434C346.728 482.225 446.54 476.79 477.669 431.334C514.775 377.15 457.745 329.964 449.71 324.976C447.764 323.768 453.344 339.253 453.963 347.085C454.583 354.917 449.71 357.765 449.71 357.765C449.71 357.765 447.789 349.473 430.806 348.05C413.824 346.628 405.712 348.62 405.712 348.62Z" fill="#6C6C6C"/>
<path fill-rule="evenodd" clip-rule="evenodd" d="M155.847 290.936C156.443 292.34 157.827 294.198 160.078 296.724C161.564 298.392 164.322 297.559 164.636 295.347C165.355 290.295 163.851 286.748 159.795 286.043C156.62 285.492 154.569 287.923 155.847 290.936ZM162.037 294.978L161.635 294.522C157.847 290.201 157.084 288.236 159.345 288.629C161.684 289.036 162.582 291.152 162.037 294.978Z" fill="#00160A"/>
<path fill-rule="evenodd" clip-rule="evenodd" d="M168.945 299.533C167.47 299.723 166.267 301.455 165.936 303.369C165.555 305.569 166.373 307.648 168.472 308.822L169.919 309.624C171.315 310.389 172.569 311.046 173.788 311.632L174.354 311.899C175.263 312.319 175.998 312.613 176.557 312.766C177.129 312.924 177.564 312.969 178.027 312.799C179.017 312.437 179.191 311.502 178.849 310.706L178.74 310.464C178.604 310.144 178.266 309.338 178.071 308.888L178.029 308.791C177.499 307.58 176.959 306.462 176.364 305.397C174.162 301.451 171.794 299.167 168.945 299.533ZM174.343 307.173C174.7 307.842 175.04 308.541 175.374 309.281L175.484 309.529L175.161 309.378L174.925 309.266C173.363 308.515 171.712 307.627 169.754 306.532C168.697 305.94 168.32 304.984 168.522 303.816C168.61 303.309 168.809 302.818 169.059 302.459C169.135 302.349 169.21 302.26 169.278 302.195L169.352 302.131L169.281 302.137C170.646 301.961 172.367 303.62 174.072 306.676L174.343 307.173Z" fill="#00160A"/>
<path fill-rule="evenodd" clip-rule="evenodd" d="M191.39 322.168C191.157 321.152 178.083 297.325 187.263 298.074C196.444 298.822 194.257 325.826 193.938 325.826C193.562 325.826 191.558 322.898 191.39 322.168Z" fill="#6C6C6C"/>
<path fill-rule="evenodd" clip-rule="evenodd" d="M182.686 301.623C182.687 303.903 183.447 306.92 184.811 310.587C185.221 311.688 185.68 312.832 186.184 314.018L186.492 314.735C187.704 317.527 190.132 322.554 190.111 322.462C190.242 323.03 190.787 323.977 191.506 325.017L191.77 325.396C192.65 326.646 193.088 327.098 193.83 327.136L194.143 327.144C195.034 327.191 195.033 327.497 195.238 326.202L195.313 325.728C195.344 325.534 195.375 325.281 195.407 324.979L195.426 324.793C195.508 323.951 195.582 322.852 195.632 321.65C195.762 318.546 195.725 315.224 195.471 312.124L195.402 311.337C194.581 302.646 192.197 297.16 187.37 296.766C184.285 296.515 182.686 298.445 182.686 301.623ZM187.157 299.382C190.232 299.633 192.209 304.454 192.855 312.338C193.1 315.321 193.135 318.538 193.01 321.541L192.966 322.433L192.919 322.354C192.793 322.136 192.705 321.971 192.678 321.899L192.669 321.874C192.613 321.628 189.98 316.178 188.9 313.691C188.291 312.286 187.746 310.946 187.271 309.672C186.008 306.276 185.312 303.512 185.311 301.623C185.311 299.902 185.752 299.311 187.018 299.373L187.157 299.382Z" fill="#00160A"/>
<path fill-rule="evenodd" clip-rule="evenodd" d="M227.469 370.571C227.469 370.571 230.344 366.576 231.961 364.592C233.577 362.608 235.31 360.947 235.31 360.947C235.31 360.947 196.27 357.062 182.746 346.996C165.088 333.852 149.247 312.051 133.291 307.44C114.217 301.928 107.157 314.713 101.655 315.756C84.8944 318.932 54.1977 327.969 68.2342 355.264C72.5676 363.691 86.6055 367.609 96.4951 362.911C107.534 357.667 121.128 344.822 135.426 344.822C151.96 344.822 154.838 358.367 175.826 365.548C188.708 369.956 227.469 370.571 227.469 370.571Z" fill="#6C6C6C"/>
<path fill-rule="evenodd" clip-rule="evenodd" d="M273.955 467.157C273.955 467.157 283.486 477.561 287.435 484.254C291.385 490.948 290.001 494.578 295.484 497.671C303.72 502.319 312.21 501.147 315.987 498.675C319.765 496.204 316.221 489.878 308.302 489.878C306.355 489.878 304.064 485.405 302.954 482.447C301.845 479.488 302.353 472.206 302.353 472.206L273.955 467.157Z" fill="#6C6C6C"/>
<path fill-rule="evenodd" clip-rule="evenodd" d="M451.477 327.596C451.477 327.596 513.578 403.763 426.248 448.472C365.172 479.741 264.826 462.859 264.826 462.859C264.826 462.859 374.064 492.225 445.461 456.82C491.017 434.229 500.028 395.829 478.295 356.731C472.607 346.5 451.477 327.596 451.477 327.596Z" fill="#E7EAEE"/>
<path fill-rule="evenodd" clip-rule="evenodd" d="M447.83 323.797C448.612 322.761 449.832 322.747 450.742 323.312C453.674 325.132 458.978 329.537 464.079 334.703C471.16 341.874 477.482 350 482.33 358.758C495.603 382.738 494.418 407.842 477.572 432.441C462.683 454.183 433.552 467.306 392.662 473.184C356.897 478.325 315.492 477.613 281.184 470.349L279.464 469.98C259.829 465.693 245.354 460.248 234.403 451.833C220.04 440.795 213.339 425.351 215.636 404.58C219.112 373.139 231.542 355.666 250.28 349.545C257.245 347.269 264.706 346.71 272.406 347.469C277.685 347.99 282.119 348.972 286.813 350.358L287.647 350.607C292.746 352.153 297.085 353.861 303.778 356.826L308.726 359.042C318.978 363.638 324.911 365.817 332.591 367.366C342.255 369.315 352.896 369.544 365.807 367.779L367.723 367.507C378.261 365.971 383.917 364.576 387.282 362.43C391.22 359.917 392.626 355.846 392.063 350.208C391.807 347.643 391.17 344.938 390.165 341.784L389.887 340.934C389.454 339.645 388.186 336.025 387.952 335.238C387.663 334.263 387.531 333.584 387.578 332.953C387.697 331.369 389.085 330.392 390.639 330.859C398.85 333.329 404.747 340.501 408.369 352.127C408.691 353.159 408.114 354.257 407.082 354.579C406.05 354.9 404.952 354.324 404.63 353.292C401.873 344.441 397.847 338.684 392.575 335.872L392.228 335.693L393.654 339.85L393.693 339.969C397.312 355.404 394.624 367.507 370.28 371.247C368.94 371.452 342.02 373.769 330.842 371.003C313.909 366.813 289.878 351.176 275.471 350.607C261.064 350.038 257.897 351.176 251.496 353.267C234.321 358.877 220.036 377.051 217.154 407.065C215.631 422.913 224.192 438.972 238.23 448.864C273.955 474.04 356.801 475.239 392.104 470.164C432.016 464.426 461.913 450.876 476.054 430.228C491.997 406.947 491.504 383.417 478.904 360.655C474.243 352.234 468.138 344.386 461.293 337.455C458.175 334.297 454.988 331.444 452.4 329.363L451.964 329.015L452.343 330.508L453.556 335.167L453.998 336.912C454.067 337.187 454.133 337.456 454.198 337.721L454.429 338.679C455.248 342.121 455.746 344.793 455.915 346.93C456.383 352.838 454.673 357.132 450.697 359.455C449.764 360.001 448.565 359.686 448.019 358.753C447.474 357.819 447.788 356.62 448.722 356.074C451.245 354.6 452.371 351.774 452.012 347.239C451.861 345.344 451.392 342.833 450.614 339.563L450.394 338.652C450.299 338.263 450.2 337.864 450.095 337.448L448.389 330.854C448.135 329.856 447.944 329.071 447.791 328.387L447.747 328.185C447.486 326.997 447.35 326.147 447.342 325.507C447.334 324.852 447.428 324.33 447.83 323.797Z" fill="#00160A"/>
<path fill-rule="evenodd" clip-rule="evenodd" d="M405.555 346.462L406.954 346.226C416.191 344.703 423.645 344.152 429.341 344.584C435.351 345.039 441.722 346.664 448.454 349.449C449.342 349.817 449.764 350.835 449.397 351.723C449.029 352.611 448.011 353.033 447.123 352.666C440.716 350.014 434.701 348.48 429.079 348.054C423.427 347.627 415.774 348.235 406.146 349.893C405.198 350.056 404.298 349.42 404.135 348.473C403.972 347.525 404.608 346.625 405.555 346.462Z" fill="#00160A"/>
<path fill-rule="evenodd" clip-rule="evenodd" d="M416.687 338.653C420.856 337.797 424.663 338.24 428.06 339.994C431.312 341.674 434.13 343.787 436.507 346.331C437.004 346.864 436.976 347.698 436.444 348.195C435.912 348.692 435.077 348.664 434.58 348.132C432.412 345.811 429.837 343.881 426.85 342.338C424.008 340.869 420.814 340.498 417.218 341.237C416.504 341.383 415.807 340.924 415.661 340.21C415.514 339.497 415.974 338.8 416.687 338.653Z" fill="#00160A"/>
<path fill-rule="evenodd" clip-rule="evenodd" d="M425.116 331.748C425.49 331.123 426.3 330.92 426.925 331.294C430.268 333.293 433.036 335.531 435.224 338.009C437.432 340.511 439.246 343.709 440.672 347.597C440.923 348.28 440.572 349.038 439.888 349.289C439.204 349.54 438.447 349.189 438.196 348.505C436.877 344.91 435.224 341.995 433.247 339.754C431.248 337.49 428.691 335.423 425.571 333.557C424.946 333.183 424.742 332.373 425.116 331.748Z" fill="#00160A"/>
<path fill-rule="evenodd" clip-rule="evenodd" d="M386.909 363.082C387.461 362.295 388.546 362.103 389.333 362.655C390.12 363.206 373.317 387.137 373.317 391.78C373.317 396.815 375.79 400.184 382.379 405.499L385.17 407.718L385.982 408.37C390.066 411.669 392.444 413.984 394.466 416.923C397.292 421.03 398.622 425.616 398.283 431.055C397.865 437.764 395.841 442.4 391.831 447.75L391.467 448.229C391.016 448.81 389.031 451.346 388.488 452.089C386.547 454.739 385.634 456.733 385.468 459.076C384.736 469.397 389.592 481.86 400.139 496.418C400.703 497.197 400.529 498.285 399.75 498.849C398.972 499.413 397.884 499.239 397.32 498.46C386.338 483.3 381.196 470.105 381.996 458.83C382.208 455.839 383.298 453.361 385.42 450.391L385.679 450.032C386.303 449.18 388.581 446.274 388.773 446.023C392.593 441.011 398.117 433.678 393.694 419.723C391.467 412.697 370.325 407.718 369.629 392.763C369.466 389.24 375.339 379.597 386.909 363.082Z" fill="#00160A"/>
<path d="M393.309 435.438L390.88 435.464C376.501 435.648 367.756 436.373 365.055 437.531L364.956 437.575C360.983 439.396 357.859 441.867 355.47 444.828C353.615 447.127 352.304 449.591 351.447 452.052C351.192 452.785 350.994 453.471 350.846 454.095L350.747 454.538L354.905 459.867C354.947 459.92 354.985 459.975 355.019 460.031L355.06 460.088L355.191 460.28C356.089 461.583 357.109 462.857 358.421 464.342L359.025 465.015C360.103 466.191 363.533 469.888 364.698 471.219C367.192 474.066 369.292 476.805 371.302 479.949C374.368 484.743 377.072 490.279 379.499 496.982L379.674 497.472L379.848 497.975C380.06 498.596 380.267 499.233 380.493 499.952L381.518 503.313C383.03 508.267 384.088 510.543 385.764 511.921L386.045 512.146C388.242 513.857 390.289 514.279 395.98 514.46L397.643 514.506C405.208 514.713 409.154 508.705 404.825 504.34C403.468 502.971 398.991 501.909 391.667 501.465C390.707 501.407 391.609 498.934 391.667 497.975C391.725 497.016 392.55 496.285 393.51 496.343C394.358 496.395 395.173 496.454 395.954 496.521C386.255 482.463 381.52 470.484 382.273 459.867C382.485 456.876 382.164 455.706 384.286 452.736L384.691 452.181C385.464 451.15 387.46 448.603 387.639 448.368C389.272 446.226 390.41 444.47 391.323 442.554L391.502 442.169L391.563 442.031L391.664 441.807C392.144 440.708 392.653 438.814 393.171 436.161L393.309 435.438Z" fill="#6C6C6C"/>
<path fill-rule="evenodd" clip-rule="evenodd" d="M352.433 452.518C353.804 456.519 356.196 458.961 359.527 462.74L359.995 463.266C360.827 464.18 364.598 468.241 365.832 469.649C368.326 472.496 370.425 475.235 372.436 478.38C375.502 483.174 378.206 488.709 380.633 495.413C380.75 495.735 380.866 496.066 380.982 496.406L381.299 497.357C381.37 497.575 381.442 497.798 381.515 498.03L381.93 499.366C382.142 500.061 382.572 501.483 382.651 501.743L382.881 502.485C384.274 506.929 385.308 509.044 386.898 510.351L387.179 510.577C389.282 512.215 391.248 512.671 396.407 512.866L398.777 512.937C406.342 513.144 410.288 507.136 405.959 502.77C404.602 501.401 400.124 500.34 392.801 499.895C391.841 499.837 391.111 499.012 391.169 498.053C391.227 497.093 392.052 496.363 393.012 496.421L393.925 496.48C401.573 497.01 406.327 498.198 408.431 500.319C415.207 507.153 409.174 516.511 398.991 516.422L397.766 516.392C390.497 516.196 387.891 515.675 384.687 513.04C382.401 511.161 381.16 508.634 379.564 503.543L378.531 500.153L378.199 499.088C378.058 498.642 377.923 498.228 377.789 497.828L377.688 497.531C377.578 497.21 377.469 496.9 377.36 496.598C375.019 490.132 372.428 484.828 369.504 480.255C367.741 477.498 365.905 475.068 363.757 472.569L363.214 471.943C361.957 470.508 357.864 466.105 357.295 465.469C353.583 461.32 351.365 457.968 349.783 453.552L349.621 453.091C346.543 444.11 342.591 441.047 337.428 442.96C336.527 443.295 326.44 448.133 336.209 441.638C345.978 435.142 352.433 452.518 352.433 452.518Z" fill="#00160A"/>
<path fill-rule="evenodd" clip-rule="evenodd" d="M413.167 390.688C411.271 390.688 408.549 385.24 408.549 382.579C408.549 379.917 415.359 380.817 415.359 380.817C415.359 380.817 422.511 381.776 421.525 384.453C420.539 387.13 414.221 390.688 413.167 390.688Z" fill="#FFB61D"/>
<ellipse cx="401.956" cy="371.09" rx="3.75591" ry="7.01675" fill="#00160A"/>
<ellipse cx="437.876" cy="372.677" rx="4.11624" ry="6.90681" fill="#00160A"/>
<path fill-rule="evenodd" clip-rule="evenodd" d="M435.19 384.273C438.326 382.926 441.796 382.671 445.563 383.494C449.247 384.298 460.345 391.244 459.957 391.86C459.569 392.477 448.331 386.797 445 386.07C441.752 385.361 438.841 385.575 436.231 386.696C435.562 386.983 434.787 386.674 434.499 386.005C434.212 385.336 434.521 384.56 435.19 384.273Z" fill="#00160A"/>
<path fill-rule="evenodd" clip-rule="evenodd" d="M437.188 388.831C440.479 389.005 441.336 388.255 445.845 391.181C450.353 394.108 453.723 401 453.106 401.388C452.489 401.775 448.892 395.628 444.762 392.532C440.633 389.437 435.763 390.805 435.801 390.078C435.838 389.391 436.393 388.855 437.068 388.83L437.188 388.831Z" fill="#00160A"/>
<path fill-rule="evenodd" clip-rule="evenodd" d="M414.331 393.544C413.416 399.227 413.646 402.845 413.989 406.882C414.331 410.918 417.558 416.731 417.882 419.16C418.206 421.589 411.778 411.571 411.389 407.324C411 403.077 408.245 391.533 413.058 392.07C413.058 392.07 414.433 392.913 414.331 393.544Z" fill="#00160A"/>
<path fill-rule="evenodd" clip-rule="evenodd" d="M390.38 384.968C393.303 384.968 394.487 385.04 397.333 385.6C398.047 385.74 398.512 386.434 398.372 387.148C398.231 387.863 397.538 388.328 396.823 388.187C395.811 387.988 393.868 387.141 390.647 387.175C386.245 387.222 382.413 389.665 382.221 389.26C381.909 388.602 387.457 384.968 390.38 384.968Z" fill="#00160A"/>
<path fill-rule="evenodd" clip-rule="evenodd" d="M395.16 379.306C395.869 379.473 396.308 380.183 396.141 380.892C395.973 381.601 395.263 382.04 394.554 381.873C388.223 380.38 383.143 380.42 379.56 380.28C376.036 380.142 368.131 380.694 367.899 380.004C367.668 379.313 388.678 377.777 395.16 379.306Z" fill="#00160A"/>
<path fill-rule="evenodd" clip-rule="evenodd" d="M424.532 463.256C425.493 463.273 426.259 464.066 426.242 465.027C426.179 468.576 426.676 471.082 427.635 472.523C431.658 478.571 435.07 482.651 438.269 484.008C438.357 484.046 438.565 484.098 438.889 484.161L439.369 484.248C439.728 484.308 441.247 484.537 441.513 484.579C442.513 484.737 443.338 484.889 444.143 485.071C445.919 485.474 447.397 485.989 448.621 486.704C452.298 488.853 454.725 491.994 454.961 495.083C455.234 498.652 452.64 501.317 448.055 502.153C436.796 504.207 428.915 502.194 424.764 495.939C420.443 489.814 416.127 484.733 411.823 480.696C407.588 476.724 403.829 474.17 400.586 473.02C399.68 472.699 399.206 471.704 399.527 470.798C399.849 469.892 400.843 469.418 401.749 469.739C405.511 471.073 409.649 473.884 414.205 478.157C418.692 482.366 423.158 487.624 427.636 493.973C430.907 498.901 437.398 500.559 447.43 498.729C450.406 498.186 451.613 496.946 451.491 495.348C451.353 493.548 449.64 491.331 446.865 489.71C445.997 489.203 444.833 488.797 443.373 488.466C442.745 488.323 442.088 488.199 441.31 488.072L438.795 487.681L438.309 487.595C437.706 487.482 437.277 487.369 436.91 487.213C434.517 486.198 432.059 484.013 429.485 480.935C427.788 478.906 426.485 477.079 424.737 474.451C423.313 472.311 422.688 469.156 422.761 464.966C422.778 464.005 423.571 463.239 424.532 463.256Z" fill="#00160A"/>
<path fill-rule="evenodd" clip-rule="evenodd" d="M438.59 495.366C438.762 494.79 439.368 494.463 439.944 494.635C441.736 495.17 443.004 495.762 443.778 496.465C444.511 497.131 445.236 498.155 445.979 499.544C446.262 500.074 446.062 500.733 445.533 501.016C445.003 501.299 444.344 501.1 444.06 500.57C443.425 499.381 442.834 498.547 442.315 498.075C441.835 497.639 440.828 497.169 439.321 496.719C438.745 496.547 438.418 495.941 438.59 495.366Z" fill="#00160A"/>
<path fill-rule="evenodd" clip-rule="evenodd" d="M444.265 493.063C444.455 492.493 445.071 492.185 445.641 492.374C447.175 492.885 448.316 493.467 449.074 494.156C449.825 494.838 450.547 495.942 451.277 497.48C451.534 498.023 451.303 498.671 450.761 498.929C450.218 499.187 449.569 498.956 449.311 498.413C448.692 497.109 448.112 496.222 447.611 495.766C447.116 495.316 446.226 494.862 444.954 494.439C444.384 494.249 444.075 493.633 444.265 493.063Z" fill="#00160A"/>
<path fill-rule="evenodd" clip-rule="evenodd" d="M397.697 508.053C397.887 507.483 398.503 507.175 399.073 507.365C400.607 507.875 401.748 508.458 402.506 509.146C403.257 509.829 403.979 510.932 404.709 512.47C404.966 513.013 404.735 513.662 404.193 513.919C403.65 514.177 403.001 513.946 402.743 513.403C402.124 512.099 401.544 511.212 401.043 510.756C400.548 510.306 399.658 509.852 398.386 509.429C397.816 509.239 397.507 508.623 397.697 508.053Z" fill="#00160A"/>
<path fill-rule="evenodd" clip-rule="evenodd" d="M400.862 504.361C401.051 503.791 401.667 503.482 402.237 503.672C403.772 504.183 404.913 504.765 405.67 505.454C406.422 506.136 407.143 507.24 407.873 508.778C408.131 509.321 407.9 509.969 407.357 510.227C406.815 510.485 406.166 510.253 405.908 509.711C405.289 508.406 404.709 507.519 404.208 507.064C403.712 506.614 402.823 506.16 401.55 505.736C400.98 505.547 400.672 504.931 400.862 504.361Z" fill="#00160A"/>
<path fill-rule="evenodd" clip-rule="evenodd" d="M272.78 465.874C273.488 465.224 285.502 479.003 288.078 483.37C288.909 484.777 289.564 486.132 290.147 487.581C290.326 488.028 290.494 488.47 290.675 488.969L291.358 490.898C292.371 493.715 294.055 494.867 296.339 496.155C303.039 499.936 310.951 499.89 315.034 497.219C317.298 495.737 314.24 491.618 308.302 491.618C305.527 491.618 303.14 487.898 301.325 483.057C300.475 480.79 300.262 477.171 300.617 472.085C300.683 471.126 301.515 470.403 302.474 470.47C303.433 470.536 304.156 471.368 304.089 472.327C303.767 476.95 303.955 480.158 304.584 481.835L304.767 482.309C305.99 485.374 307.788 488.137 308.302 488.137C312.486 488.137 316.025 489.749 317.928 492.312C319.941 495.023 319.676 498.342 316.94 500.131C311.736 503.536 302.431 503.59 294.628 499.187C291.613 497.485 290.291 495.722 289.054 492.393L288.39 490.522C288.168 489.898 287.978 489.389 287.773 488.88C287.253 487.586 286.673 486.387 285.937 485.139C283.376 480.8 278.951 475.187 272.672 468.333C272.023 467.624 272.071 466.523 272.78 465.874Z" fill="#00160A"/>
<path fill-rule="evenodd" clip-rule="evenodd" d="M305.008 495.366C305.18 494.79 305.786 494.463 306.362 494.635C308.154 495.17 309.422 495.762 310.196 496.465C310.93 497.131 311.655 498.155 312.397 499.544C312.681 500.074 312.481 500.733 311.951 501.016C311.421 501.299 310.762 501.1 310.479 500.57C309.843 499.381 309.252 498.547 308.733 498.075C308.254 497.639 307.246 497.169 305.739 496.719C305.164 496.547 304.837 495.941 305.008 495.366Z" fill="#00160A"/>
<path fill-rule="evenodd" clip-rule="evenodd" d="M309.101 493.59C309.291 493.02 309.907 492.712 310.477 492.902C312.012 493.412 313.152 493.995 313.91 494.683C314.661 495.366 315.383 496.469 316.113 498.007C316.371 498.55 316.14 499.199 315.597 499.456C315.054 499.714 314.405 499.483 314.148 498.94C313.528 497.636 312.949 496.749 312.447 496.293C311.952 495.843 311.063 495.389 309.79 494.966C309.22 494.776 308.912 494.16 309.101 493.59Z" fill="#00160A"/>
<path fill-rule="evenodd" clip-rule="evenodd" d="M108.47 309.503L108.102 309.757C106.938 310.57 104.695 312.207 104.201 312.554L104.15 312.589C102.871 313.471 102.006 313.917 101.331 314.045C89.3979 316.306 79.0922 318.837 72.0377 324.178C62.1735 331.646 56.8451 344.706 63.6038 357.849C68.4133 367.201 86.5952 369.54 97.2419 364.483C99.0635 363.617 101.004 362.534 103.345 361.102L104.318 360.501C104.655 360.291 105.001 360.074 105.37 359.841L107.919 358.214L110.705 356.429L111.726 355.784C121.973 349.346 128.483 346.562 135.426 346.562C141.165 346.562 145.204 348.138 150.277 351.86L150.66 352.143C151.541 352.802 157.259 357.362 159.189 358.768C164.191 362.41 169.131 365.096 175.263 367.194L175.802 367.373C184.776 370.277 201.942 371.906 227.441 372.311C228.011 372.32 228.549 372.049 228.882 371.587L229.875 370.215C231.303 368.256 232.45 366.746 233.31 365.69C234.343 364.422 235.411 363.26 236.514 362.203C237.587 361.175 236.961 359.362 235.482 359.214L233.948 359.058C209.06 356.469 192.305 351.941 183.785 345.599L183.164 345.133C178.621 341.697 174.281 337.82 167.666 331.474L159.118 323.262C155.738 320.041 154.55 318.994 152.182 316.983L151.812 316.668C146.276 311.974 141.473 308.756 136.814 306.836C135.792 306.414 134.779 306.058 133.775 305.768C123.4 302.77 115.953 304.435 108.47 309.503ZM132.808 309.112C133.688 309.366 134.581 309.68 135.488 310.054C139.616 311.755 143.986 314.649 149.051 318.894L151.033 320.579C153.215 322.455 154.726 323.859 159.754 328.691L165.718 334.427C172.471 340.893 176.894 344.809 181.707 348.391L181.99 348.599C190.733 354.951 206.616 359.415 229.72 362.095L231.61 362.308L231.583 362.338C231.365 362.588 231.148 362.843 230.933 363.101L230.458 363.68L230.095 364.136C229.406 365.008 228.585 366.091 227.633 367.385L226.588 368.815L224.473 368.776C200.489 368.289 184.416 366.647 176.39 363.901C170.832 361.999 166.332 359.595 161.784 356.347L161.238 355.954C159.385 354.605 153.69 350.062 152.743 349.355C146.934 345.015 142.149 343.081 135.426 343.081C127.632 343.081 120.664 346.058 109.891 352.826L108.236 353.876L104.685 356.151C103.632 356.824 102.799 357.349 101.99 357.849L101.09 358.399C99.0419 359.64 97.3312 360.586 95.7483 361.338C86.7228 365.626 73.6873 362.062 69.7819 354.467C63.8086 342.851 65.9103 334.315 74.4463 327.852C80.9671 322.915 90.5319 319.634 101.979 317.465C103.177 317.238 104.332 316.665 105.838 315.651L106.125 315.456C106.572 315.148 109.28 313.169 110.314 312.459L110.422 312.385C117.105 307.859 123.514 306.426 132.808 309.112Z" fill="#00160A"/>
<path fill-rule="evenodd" clip-rule="evenodd" d="M549.625 356.413L549.461 356.812L549.131 357.636C544.85 368.496 541.071 385.135 537.772 407.593L537.579 408.913L537.568 408.848C536.29 401.317 534.677 395.466 532.713 391.274C529.301 383.992 524.441 381.243 518.696 383.856C500.055 392.336 501.167 426.819 520.909 487.417C521.171 488.223 521.923 488.769 522.77 488.769H544.201C544.777 488.769 545.323 488.516 545.695 488.077C572.457 456.512 584.441 435.291 581.512 423.632L581.416 423.262C578.751 413.232 572.083 411.083 562.576 416.473L562.238 416.667L562.712 415.575C579.205 377.366 582.232 353.839 571.087 344.67C562.905 337.938 555.439 342.392 549.625 356.413ZM568.918 346.182C578.73 354.254 575.243 380.688 556.631 421.657C555.78 423.53 577.714 408.848 577.714 424.586L577.784 424.886C579.896 434.573 568.997 454.129 544.967 482.862L543.292 484.853L522.77 486.315C522.77 486.315 495.103 394.962 520.318 387.42C527.574 385.25 532.927 395.788 535.582 424.291C535.8 426.625 539.19 426.674 539.475 424.348L539.708 422.47C543.522 391.985 548.048 370.441 553.242 357.913L553.539 357.207C558.391 345.847 563.436 341.672 568.918 346.182Z" fill="#00160A"/>
<path d="M568.599 347.694C578.411 355.766 574.435 380.483 555.824 421.452C554.973 423.325 557.217 425.075 558.827 423.793L559.48 423.278C570.054 415.047 575.475 415.677 577.714 424.586L577.784 424.886C579.896 434.573 568.997 454.129 544.967 482.862L543.292 484.853H524.193L523.508 482.719C505.502 426.285 504.792 394.484 520.318 387.42C527.48 384.162 532.927 395.788 535.582 424.291C535.8 426.625 539.19 426.674 539.475 424.348L539.708 422.47C543.522 391.985 548.048 370.441 553.242 357.913L553.539 357.207C558.391 345.847 563.117 343.184 568.599 347.694Z" fill="#6C6C6C"/>
<ellipse cx="517.578" cy="412.385" rx="6.96167" ry="6.96165" fill="#E7EAEE"/>
<ellipse cx="561.089" cy="367.135" rx="6.96164" ry="6.96169" fill="#E7EAEE"/>
<ellipse cx="564.569" cy="434.141" rx="6.96167" ry="6.96165" fill="#E7EAEE"/>
<path fill-rule="evenodd" clip-rule="evenodd" d="M195.584 493.605C183.295 493.799 141.037 496.93 140.307 495.362C139.373 493.356 185.455 490.719 195.5 490.56L198.647 490.518C207.78 490.419 195.584 493.605 195.584 493.605ZM376.344 489.532C377.425 489.503 378.324 490.356 378.353 491.437C378.381 492.518 377.528 493.418 376.447 493.446L358.957 493.878C348.071 494.128 335.454 494.387 316.809 494.754C315.727 494.776 314.834 493.916 314.812 492.835C314.791 491.754 315.65 490.86 316.731 490.839L349.747 490.166C359.771 489.949 367.824 489.757 376.344 489.532ZM421.456 488.619C422.537 488.602 423.427 489.465 423.444 490.546C423.461 491.627 422.599 492.518 421.518 492.535L416.93 492.591L402.892 492.688C399.952 492.718 397.651 492.758 394.939 492.825C393.858 492.851 392.96 491.996 392.934 490.915C392.907 489.834 393.762 488.936 394.843 488.91L398.296 488.836C400.557 488.794 402.855 488.768 405.907 488.746L417.58 488.669C418.937 488.655 420.166 488.64 421.456 488.619ZM548.349 484.853C548.349 484.853 551.864 484.246 577.529 486.167C578.608 486.248 579.416 487.188 579.336 488.266C579.255 489.344 566.563 488.8 549.213 488.769L544.442 488.777C531.702 488.834 519.867 489.178 500.224 489.987L475.432 491.034C464.852 491.467 458.541 491.678 450.865 491.86C449.784 491.885 448.887 491.029 448.862 489.948C448.836 488.867 449.692 487.97 450.773 487.945L456.937 487.784C464.268 487.572 471.803 487.277 485.161 486.706L499.325 486.105C521.473 485.189 533.789 484.853 548.349 484.853Z" fill="#00160A"/>
<path d="M489.022 203.007L489.471 202.182C492.982 195.823 496.04 192.666 499.606 193.696C499.896 193.779 500.179 193.893 500.457 194.037C502.643 195.17 503.167 197.277 502.554 200.152L502.514 200.329L502.617 200.181C503.653 198.71 504.64 197.574 505.664 196.731L505.884 196.555C508.161 194.783 510.576 194.618 512.764 196.464C516.256 199.412 515.86 204.357 513.008 207.401L512.85 207.565C512.454 207.966 512.215 208.833 511.949 210.874L511.719 212.662C511.443 214.725 511.257 215.63 510.822 217.027C510 219.667 508.652 221.869 506.554 223.667C503.916 225.928 499.464 225.612 493.194 223.036C492.521 222.759 492.199 221.988 492.476 221.315C492.753 220.641 483.681 212.641 483.407 212.992L483.318 213.094C482.814 213.619 481.979 213.635 481.454 213.131L480.179 211.903C479.412 211.163 479.795 209.865 480.841 209.66C482.757 209.284 484.244 208.869 485.289 208.426C486.166 208.054 486.645 207.698 486.759 207.467C486.759 207.467 488.664 203.674 489.022 203.007Z" fill="#6C6C6C"/>
<path fill-rule="evenodd" clip-rule="evenodd" d="M479.611 209.792C477.389 209.625 476.082 211.315 476.082 213.36C476.082 220.441 487.65 230.124 495.188 230.124C497.397 230.124 499.205 228.543 498.563 226.128C498.322 225.217 497.765 224.409 496.852 223.414L496.65 223.197C495.624 222.108 494.563 221.134 492.184 219.087L488.539 215.963C487.645 215.189 486.223 213.955 485.793 213.587L485.275 213.148C484.279 212.308 483.509 211.696 482.821 211.21C481.606 210.35 480.664 209.871 479.611 209.792ZM478.719 213.36C478.719 210.592 482.685 214.419 487.459 218.515L490.631 221.228C494.513 224.575 499.252 228.057 496.852 228.313C489.249 229.122 478.719 219.04 478.719 213.36Z" fill="#00160A"/>
<path fill-rule="evenodd" clip-rule="evenodd" d="M480.22 191.236C480.765 190.753 483.487 188.853 482.081 191.349C480.676 193.844 472.548 197.01 480.676 209.63C480.985 210.11 480.608 211.074 479.93 211.34C479.252 211.606 478.487 211.272 478.221 210.594C476.166 205.361 475.216 201.572 475.398 199.109C475.59 196.499 477.229 193.888 480.22 191.236Z" fill="#00160A"/>
<path fill-rule="evenodd" clip-rule="evenodd" d="M470.066 195.63C470.209 194.916 471.618 193.149 471.618 194.597C471.618 196.044 469.547 199.715 472.461 203.852C475.376 207.989 480.39 210.795 479.961 211.384C479.532 211.972 478.707 212.102 478.119 211.673C473.899 208.6 471.338 206.195 470.372 204.31C469.365 202.344 469.296 199.466 470.066 195.63Z" fill="#00160A"/>
<path fill-rule="evenodd" clip-rule="evenodd" d="M489.022 203.007L489.471 202.182C492.982 195.823 496.04 192.666 499.606 193.696C499.896 193.779 500.179 193.893 500.457 194.037C502.643 195.17 503.167 197.277 502.554 200.152L502.514 200.329L502.617 200.181C503.653 198.71 504.64 197.574 505.664 196.731L505.884 196.555C508.161 194.783 510.576 194.618 512.764 196.464C516.256 199.412 515.86 204.357 513.008 207.401L512.85 207.565C512.454 207.966 512.215 208.833 511.949 210.874L511.719 212.662C511.443 214.725 511.257 215.63 510.822 217.027C510 219.667 508.652 221.869 506.554 223.667C503.916 225.928 499.464 225.612 493.194 223.036C492.521 222.759 492.199 221.988 492.476 221.315C492.753 220.641 502.246 226.158 505.884 221.869C509.522 217.58 509.915 208.709 510.964 206.021L511.218 205.552C513.229 203.518 513.297 200.366 511.062 198.479C509.909 197.506 508.864 197.577 507.504 198.636C506.265 199.6 504.974 201.256 503.485 203.666L503.049 204.384C502.316 205.62 500.849 208.182 500.654 208.508L500.386 208.952C499.483 210.428 498.331 211.352 498.161 211.392C497.99 211.431 497.747 211.294 497.687 210.046C497.668 209.635 497.772 209.222 497.99 208.66L498.077 208.442C498.342 207.798 499.799 204.772 499.899 204.555C500.34 203.602 500.696 202.771 500.99 201.987C502.176 198.829 500.412 196.984 499.243 196.379C499.118 196.314 498.995 196.264 498.875 196.229C497.064 195.706 494.543 198.395 491.601 203.782L490.964 204.974C490.492 205.873 490.031 206.798 489.124 208.635C488.464 209.97 486.705 210.928 483.771 211.7L483.61 211.741L483.624 211.779C483.753 212.185 483.681 212.641 483.407 212.992L483.318 213.094C482.814 213.619 481.979 213.635 481.454 213.131L480.179 211.903C479.412 211.163 479.795 209.865 480.841 209.66C482.757 209.284 484.244 208.869 485.289 208.426C486.166 208.054 486.645 207.698 486.759 207.467L487.992 204.988C488.37 204.237 488.664 203.674 489.022 203.007Z" fill="#00160A"/>
<ellipse cx="506.324" cy="207.04" rx="2.99602" ry="2.45628" fill="#FFB61D"/>
<ellipse cx="497.764" cy="200.192" rx="2.99599" ry="2.45628" fill="#FFB61D"/>
<path fill-rule="evenodd" clip-rule="evenodd" d="M479.346 217.42C478.928 217.049 478.406 216.381 477.945 215.657L477.352 215.92L476.651 216.221C476.51 216.285 476.418 216.336 476.391 216.376C476.31 216.527 476.123 216.584 475.971 216.504C475.823 216.425 475.763 216.238 475.844 216.088C475.9 215.945 476.294 215.497 477.025 215.059C477.158 214.98 477.304 214.906 477.462 214.834C477.192 214.33 476.98 213.842 476.88 213.451C476.73 212.874 476.85 212.466 477.048 212.322C477.242 212.18 477.728 212.154 478.469 212.769C478.605 212.873 478.627 213.067 478.523 213.201C478.42 213.336 478.227 213.36 478.09 213.257C477.95 213.153 477.807 213.094 477.692 213.051L477.748 213.272C477.77 213.351 477.797 213.433 477.835 213.513C477.968 213.804 478.137 214.135 478.326 214.476C478.905 214.257 479.564 214.058 480.276 213.963C480.623 213.916 480.977 213.907 481.344 213.91C481.555 213.896 481.739 214.057 481.753 214.268C481.767 214.479 481.606 214.662 481.395 214.676C480.538 214.759 479.747 214.975 479.048 215.219L478.819 215.301C479.197 215.892 479.602 216.429 479.949 216.732C480.137 216.898 480.156 217.188 479.992 217.378C479.823 217.568 479.534 217.587 479.346 217.42Z" fill="#FFB61D"/>
<path fill-rule="evenodd" clip-rule="evenodd" d="M278.051 452.924C275.886 463.123 265.439 466.016 265.552 474.227C265.61 478.475 266.783 481.998 267.746 484.708C269.704 490.216 274.805 495.891 277.168 501.144C279.187 505.634 289.318 502.597 290.128 509.575C290.568 513.376 283.401 515.565 281.451 515.713C278.651 515.925 275.102 514.964 270.804 512.829C265.577 510.289 261.381 508.288 258.343 504.628C257.751 503.915 257.379 501.9 256.723 498.732C256.007 495.265 253.558 486.452 247.159 472.222C246.246 470.19 242.748 461.873 238.857 453.366C235.647 446.346 248.915 432.283 254.797 432.775C269.248 433.983 279.58 445.719 278.051 452.924Z" fill="#6C6C6C"/>
<path fill-rule="evenodd" clip-rule="evenodd" d="M267.919 512.98C264.322 510.838 261.363 508.37 259.043 505.575C258.451 504.862 258.015 502.233 257.36 499.064C257.017 497.404 244.528 467.442 240.408 456.164C239.64 454.06 241.506 455.533 241.944 456.164C244.334 459.608 259.043 482.327 266.071 503.374" fill="#E7EAEE"/>
<path fill-rule="evenodd" clip-rule="evenodd" d="M270.723 512.084L271.257 512.348C275.3 514.356 278.563 515.24 280.998 515.055C283.615 514.857 287.885 512.498 288.074 510.489C288.377 507.265 287.504 506.35 283.19 504.721C281.939 504.248 278.556 504.352 273.343 505.141C272.392 505.285 271.505 504.631 271.361 503.681C271.218 502.73 271.871 501.843 272.822 501.699L273.679 501.573C279.012 500.809 282.506 500.742 284.42 501.465L284.988 501.684C290.165 503.732 292.007 505.849 291.54 510.815C291.144 515.024 285.367 518.215 281.261 518.526C278.199 518.758 274.509 517.793 270.16 515.686L269.723 515.472C264.282 512.829 259.951 509.581 256.746 505.72C256.324 505.211 256.054 504.534 255.777 503.494L255.713 503.248C255.61 502.844 255.508 502.396 255.388 501.835L254.698 498.45L254.592 497.956C253.457 492.873 250.169 483.491 245.188 472.346L244.428 470.668C243.96 469.648 237.279 458.822 236.781 456.284C234.916 446.799 242.54 442.1 242.54 442.1C242.54 442.1 238.586 450.442 239.7 454.544C240.567 457.732 247.878 468.704 250.478 477.116C253.17 485.821 255.987 495.109 260.102 502.703C263.208 508.436 265.432 511.033 270.723 512.084Z" fill="#00160A"/>
<path fill-rule="evenodd" clip-rule="evenodd" d="M279.163 510.134C279.335 509.559 279.941 509.231 280.517 509.403C282.309 509.938 283.577 510.53 284.351 511.233C285.085 511.9 285.81 512.923 286.552 514.312C286.836 514.842 286.636 515.501 286.106 515.785C285.576 516.068 284.917 515.868 284.634 515.338C283.998 514.15 283.407 513.315 282.888 512.843C282.409 512.408 281.401 511.938 279.894 511.488C279.319 511.316 278.992 510.71 279.163 510.134Z" fill="#00160A"/>
<path fill-rule="evenodd" clip-rule="evenodd" d="M282.201 506.777C282.391 506.207 283.007 505.898 283.577 506.088C285.112 506.599 286.252 507.181 287.01 507.87C287.762 508.552 288.483 509.656 289.213 511.194C289.471 511.737 289.24 512.385 288.697 512.643C288.154 512.901 287.505 512.67 287.248 512.127C286.629 510.822 286.049 509.935 285.547 509.48C285.052 509.03 284.163 508.576 282.89 508.152C282.32 507.963 282.012 507.347 282.201 506.777Z" fill="#00160A"/>
<path fill-rule="evenodd" clip-rule="evenodd" d="M271.31 436.671C275.137 438.211 282.664 446.744 281.499 451.536C280.295 456.492 278.53 458.471 275.72 461.757L275.426 462.096C274.569 463.071 271.03 466.666 270.89 466.817L270.554 467.187C267.401 470.746 266.112 474.681 268.677 481.933C270.556 487.246 273.648 493.284 277.914 499.043C278.477 499.803 279.877 502.034 279.118 502.597C278.358 503.16 276.56 501.341 275.997 500.581C271.538 494.563 268.305 488.729 266.305 483.075C263.284 474.533 264.013 471.013 268.183 466.415L268.448 466.128C268.895 465.663 271.961 462.545 272.773 461.639L272.854 461.547C275.475 458.567 277.202 455.41 278.31 450.847C279.076 447.693 275.856 442.094 269.051 437.55C264.534 434.533 267.484 435.132 271.31 436.671Z" fill="#00160A"/>
</g>
</svg>
