<svg width="37" height="43" viewBox="0 0 37 43" fill="none" xmlns="http://www.w3.org/2000/svg">
<path d="M5.07898 8L6.95398 38C6.95714 38.7947 7.27422 39.5559 7.83615 40.1178C8.39808 40.6798 9.1593 40.9968 9.95398 41H27.204C27.9982 40.9953 28.7585 40.6777 29.3201 40.1161C29.8817 39.5545 30.1993 38.7942 30.204 38L32.079 8" stroke="#FF0F00" stroke-width="3" stroke-linecap="round" stroke-linejoin="round"/>
<path d="M2 8H35Z" fill="black"/>
<path d="M2 8H35" stroke="#FF0F00" stroke-width="3" stroke-miterlimit="10" stroke-linecap="round"/>
<path d="M25 14V35M12.579 8.00001V4.25001C12.5781 3.95428 12.6356 3.66128 12.7484 3.38788C12.8611 3.11448 13.0268 2.86608 13.2359 2.65696C13.4451 2.44784 13.6935 2.28214 13.9669 2.1694C14.2403 2.05665 14.5333 1.99909 14.829 2.00001H22.329C22.6247 1.99909 22.9177 2.05665 23.1911 2.1694C23.4645 2.28214 23.7129 2.44784 23.9221 2.65696C24.1312 2.86608 24.2969 3.11448 24.4096 3.38788C24.5224 3.66128 24.5799 3.95428 24.579 4.25001V4.25001V8.00001H12.579ZM19 14V35V14ZM12 14L13 35L12 14Z" stroke="#FF0F00" stroke-width="3" stroke-linecap="round" stroke-linejoin="round"/>
</svg>
