<svg width="35" height="23" viewBox="0 0 35 23" fill="none" xmlns="http://www.w3.org/2000/svg">
<path fill-rule="evenodd" clip-rule="evenodd" d="M0.383628 9.7196C-0.127876 10.6313 -0.127876 11.7436 0.383628 12.6553C3.65747 18.4908 10.1132 22.3749 17.4427 22.3749C24.7722 22.3749 31.2279 18.4908 34.5018 12.6553C35.0133 11.7436 35.0133 10.6313 34.5018 9.7196C31.2279 3.88416 24.7722 0 17.4427 0C10.1132 0 3.65747 3.88416 0.383628 9.7196ZM3 11.1875C5.73123 6.31919 11.174 3 17.4427 3C23.7114 3 29.1542 6.31919 31.8854 11.1875C29.1542 16.0557 23.7114 19.3749 17.4427 19.3749C11.174 19.3749 5.73123 16.0557 3 11.1875ZM17.6664 17.475C20.9065 17.475 23.5331 14.6842 23.5331 11.2417C23.5331 7.79909 20.9065 5.00834 17.6664 5.00834C14.4264 5.00834 11.7998 7.79909 11.7998 11.2417C11.7998 14.6842 14.4264 17.475 17.6664 17.475Z" fill="#9E9E9E"/>
</svg>
